# xmcd
#
# Track frame offsets:
#	150
#	8597
#	21737
#	33572
#	43947
#	52857
#	63737
#	79455
#	89702
#	102050
#	107415
#	119472
#	130642
#	142580
#
# Disc length: 2054 seconds
#
# Revision: 1
# Processed by: cddbd v1.5.2PL0 Copyright (c) Steve Scherf et al.
# Submitted via: audiograbber 1.82.02
#
DISCID=b908040e
DTITLE=Charlie Gracie - Live at the Stockton Globe
DYEAR=1957
DGENRE=Pop
TTITLE0=Ko Ko Mo
TTITLE1=Long Tall Sally
TTITLE2=Trying
TTITLE3=Tutti Frutti
TTITLE4=Flip, Flop and Fly
TTITLE5=Sway
TTITLE6=Hound Dog
TTITLE7=Guitar Boogie
TTITLE8=Butterfly
TTITLE9=Ninety Nine Ways
TTITLE10=I Love You so Much it Hurts
TTITLE11=Fabulous
TTITLE12=Ling Ting Tong
TTITLE13=Dream
EXTD=
EXTT0=
EXTT1=
EXTT2=
EXTT3=
EXTT4=
EXTT5=
EXTT6=
EXTT7=
EXTT8=
EXTT9=
EXTT10=
EXTT11=
EXTT12=
EXTT13=
PLAYORDER=
